<svg xmlns="http://www.w3.org/2000/svg" width="20" height="20" viewBox="0 0 20 20">
  <path fill="#1E1E1E" d="M10,19.976 C4.49,19.976 0.024,15.51 0.024,10 C0.024,4.49 4.49,0.024 10,0.024 C15.51,0.024 19.976,4.49 19.976,10 C19.976,15.51 15.51,19.976 10,19.976 Z M10.589,15.25 L10.589,10.74 L12.094,10.74 L12.319,8.983 L10.589,8.983 L10.589,7.862 C10.589,7.354 10.729,7.007 11.455,7.007 L12.38,7.007 L12.38,5.435 C12.22,5.414 11.67,5.365 11.032,5.365 C9.697,5.365 8.784,6.185 8.784,7.688 L8.784,8.984 L7.274,8.984 L7.274,10.741 L8.784,10.741 L8.784,15.25 L10.589,15.25 L10.589,15.25 Z"/>
</svg>
