<svg xmlns="http://www.w3.org/2000/svg" viewBox="0 0 24 24">
  <path fill="#1E1E1E" d="M11.988 2.004c5.513 0 9.983 4.47 9.983 9.984 0 5.513-4.47 9.983-9.983 9.983-5.514 0-9.984-4.47-9.984-9.983 0-5.514 4.47-9.984 9.984-9.984zm6.133 12.218c.14-1.744.14-2.846 0-4.59-.068-.832-.565-1.879-1.581-1.916-2.842-.19-6.21-.243-9.104 0-.898.1-1.513 1.194-1.58 2.024-.143 1.745-.143 2.738 0 4.482.067.83.667 1.93 1.58 2.046 2.928.192 6.277.22 9.104 0 .882-.154 1.513-1.214 1.58-2.046zm-7.381.261V9.492l3.743 2.496-3.743 2.495z"/>
</svg>