<?xml version="1.0" encoding="UTF-8" standalone="no"?>
<svg width="28px" height="29px" viewBox="0 0 28 29" version="1.1" xmlns="http://www.w3.org/2000/svg" xmlns:xlink="http://www.w3.org/1999/xlink">
    <!-- Generator: Sketch 50.2 (55047) - http://www.bohemiancoding.com/sketch -->
    <title>icon-instagram</title>
    <desc>Created with Sketch.</desc>
    <defs></defs>
    <g id="Page-1" stroke="none" stroke-width="1" fill="none" fill-rule="evenodd">
        <g id="Desktop-HD-Copy-3" transform="translate(-1120.000000, -68.000000)" fill="#1E1E1E">
            <g id="Stacked-Group">
                <g id="Section-1">
                    <g id="Stacked-Group" transform="translate(95.000000, 60.000000)">
                        <g id="header" transform="translate(196.000000, 0.000000)">
                            <g id="social" transform="translate(696.000000, 8.000000)">
                                <g id="Stacked-Group">
                                    <path d="M147,0 C143.19725,0 142.72125,0.018125 141.2285,0.087 C139.7375,0.1595 138.7225,0.402375 137.83,0.76125 C136.9095,1.131 136.12725,1.627625 135.35025,2.4341875 C134.5715,3.2389375 134.09025,4.0473125 133.735,5.0025 C133.3885,5.926875 133.15225,6.978125 133.084,8.522375 C133.014,10.0684375 133,10.5614375 133,14.5 C133,18.4385625 133.0175,18.9315625 133.084,20.477625 C133.154,22.021875 133.3885,23.0749375 133.735,23.9975 C134.092,24.950875 134.5715,25.7610625 135.35025,26.5658125 C136.12725,27.372375 136.90775,27.8708125 137.83,28.23875 C138.7225,28.597625 139.7375,28.8423125 141.2285,28.913 C142.72125,28.9855 143.19725,29 147,29 C150.80275,29 151.27875,28.981875 152.7715,28.913 C154.2625,28.8405 155.27925,28.597625 156.17,28.23875 C157.0905,27.869 157.87275,27.372375 158.64975,26.5658125 C159.4285,25.7610625 159.90975,24.9526875 160.265,23.9975 C160.6115,23.073125 160.84775,22.021875 160.916,20.477625 C160.986,18.9315625 161,18.4385625 161,14.5 C161,10.5614375 160.9825,10.0684375 160.916,8.522375 C160.846,6.978125 160.6115,5.9250625 160.265,5.0025 C159.908,4.049125 159.4285,3.2389375 158.64975,2.4341875 C157.87275,1.627625 157.09225,1.1291875 156.17,0.76125 C155.2775,0.402375 154.2625,0.1576875 152.7715,0.087 C151.27875,0.0145 150.80275,0 147,0 Z M147,2.61 C150.738,2.61 151.1825,2.628125 152.65775,2.697 C154.02275,2.76225 154.763,2.997875 155.2565,3.19725 C155.911,3.4600625 156.3765,3.773625 156.8665,4.281125 C157.3565,4.788625 157.65925,5.27075 157.913,5.948625 C158.1055,6.45975 158.333,7.2264375 158.396,8.6401875 C158.4625,10.1699375 158.47825,10.6285 158.47825,14.5 C158.47825,18.3715 158.46075,18.831875 158.39075,20.3598125 C158.32075,21.7735625 158.09325,22.54025 157.90075,23.051375 C157.63825,23.72925 157.34075,24.211375 156.85075,24.718875 C156.36075,25.226375 155.88825,25.5399375 155.24075,25.80275 C154.75075,26.002125 153.99825,26.23775 152.63325,26.303 C151.14575,26.371875 150.70825,26.3881875 146.96325,26.3881875 C143.21825,26.3881875 142.78075,26.3700625 141.29325,26.2975625 C139.92825,26.2250625 139.17575,25.9894375 138.68575,25.7900625 C138.02075,25.5181875 137.56575,25.2100625 137.07575,24.7025625 C136.58575,24.1950625 136.27075,23.7056875 136.02575,23.0350625 C135.83325,22.5275625 135.60575,21.7481875 135.53575,20.3344375 C135.48325,18.8119375 135.46575,18.3406875 135.46575,14.4800625 C135.46575,10.6194375 135.48325,10.1481875 135.53575,8.6075625 C135.60575,7.1938125 135.83325,6.4144375 136.02575,5.9069375 C136.27075,5.2181875 136.58575,4.7469375 137.07575,4.2394375 C137.56575,3.7319375 138.02075,3.4056875 138.68575,3.1519375 C139.17575,2.9525625 139.91075,2.7169375 141.27575,2.6444375 C142.76325,2.5900625 143.20075,2.5719375 146.94575,2.5719375 L147,2.61 Z M147,7.05425 C143.0275,7.05425 139.811,10.38925 139.811,14.5 C139.811,18.614375 143.031,21.94575 147,21.94575 C150.9725,21.94575 154.189,18.61075 154.189,14.5 C154.189,10.385625 150.969,7.05425 147,7.05425 L147,7.05425 Z M147,19.3339375 C144.42225,19.3339375 142.33275,17.1698125 142.33275,14.5 C142.33275,11.8301875 144.42225,9.6660625 147,9.6660625 C149.57775,9.6660625 151.66725,11.8301875 151.66725,14.5 C151.66725,17.1698125 149.57775,19.3339375 147,19.3339375 Z M156.1525,6.760625 C156.1525,7.72125 155.4,8.500625 154.4725,8.500625 C153.545,8.500625 152.7925,7.72125 152.7925,6.760625 C152.7925,5.8 153.545,5.020625 154.4725,5.020625 C155.4,5.020625 156.1525,5.8 156.1525,6.760625 Z" id="icon-instagram"></path>
                                </g>
                            </g>
                        </g>
                    </g>
                </g>
            </g>
        </g>
    </g>
</svg>