<svg xmlns="http://www.w3.org/2000/svg" width="20" height="20" viewBox="0 0 20 20">
  <path fill="#1E1E1E" d="M9.988,0.004 C15.501,0.004 19.971,4.474 19.971,9.988 C19.971,15.501 15.501,19.971 9.988,19.971 C4.474,19.971 0.004,15.501 0.004,9.988 C0.004,4.474 4.474,0.004 9.988,0.004 Z M8.45928,15 C12.61024,15 14.88064,11.5371612 14.88064,8.534203 C14.88064,8.43584704 14.88064,8.33793412 14.87404,8.24046424 C15.3157258,7.91877417 15.6969964,7.52046288 16,7.06418008 C15.5881068,7.24795589 15.1511649,7.368476 14.70376,7.4217173 C15.1748874,7.13771759 15.5274943,6.69103527 15.69596,6.16479898 C15.2529493,6.42949849 14.7682843,6.61604551 14.26288,6.71638985 C13.5633164,5.96737564 12.4517165,5.78405178 11.5514017,6.26921576 C10.6510868,6.75437974 10.185961,7.78737364 10.41684,8.78895381 C8.60223412,8.69735407 6.91156934,7.83433531 5.7656,6.41467629 C5.16659401,7.45301609 5.47255467,8.78135979 6.46432,9.44820459 C6.10516613,9.43748625 5.75384292,9.33993026 5.44,9.16376978 C5.44,9.17307372 5.44,9.18282071 5.44,9.19256769 C5.44029398,10.274303 6.19757065,11.2060007 7.2506,11.4201974 C6.91834262,11.511438 6.56973546,11.5247756 6.23156,11.4591853 C6.52721709,12.3848934 7.37449281,13.0190506 8.34004,13.0373112 C7.54088342,13.6697276 6.55366619,14.0130412 5.53724,14.0120099 C5.35767757,14.0116628 5.17828979,14.0007156 5,13.9792246 C6.03207982,14.6461297 7.2329619,14.9998746 8.45928,14.9982278 L8.45928,15 Z"/>
</svg>
