<svg xmlns="http://www.w3.org/2000/svg" viewBox="0 0 24 24">
  <path fill="#1E1E1E" d="M11.979 21.983c-5.525 0-10.004-4.479-10.004-10.004 0-5.525 4.479-10.004 10.004-10.004 5.525 0 10.004 4.479 10.004 10.004 0 5.525-4.479 10.004-10.004 10.004zm6.246-13.878a5.123 5.123 0 01-1.472.403 2.57 2.57 0 001.125-1.418 5.132 5.132 0 01-1.627.622 2.566 2.566 0 00-4.368 2.338 7.276 7.276 0 01-5.28-2.678 2.566 2.566 0 00.793 3.421 2.553 2.553 0 01-1.161-.32v.032c0 1.22.86 2.271 2.056 2.513a2.57 2.57 0 01-1.158.044 2.566 2.566 0 002.394 1.78 5.143 5.143 0 01-3.797 1.062 7.255 7.255 0 003.93 1.15c4.714 0 7.292-3.905 7.292-7.292a7.63 7.63 0 00-.007-.331 5.209 5.209 0 001.28-1.326z"/>
</svg>