<?xml version="1.0" encoding="UTF-8" standalone="no"?>
<svg width="30px" height="25px" viewBox="0 0 30 25" version="1.1" xmlns="http://www.w3.org/2000/svg" xmlns:xlink="http://www.w3.org/1999/xlink">
    <!-- Generator: Sketch 50.2 (55047) - http://www.bohemiancoding.com/sketch -->
    <title>icon-twitter</title>
    <desc>Created with Sketch.</desc>
    <defs></defs>
    <g id="Page-1" stroke="none" stroke-width="1" fill="none" fill-rule="evenodd">
        <g id="Desktop-HD-Copy-3" transform="translate(-1060.000000, -70.000000)" fill="#1E1E1E">
            <g id="Stacked-Group">
                <g id="Section-1">
                    <g id="Stacked-Group" transform="translate(95.000000, 60.000000)">
                        <g id="header" transform="translate(196.000000, 0.000000)">
                            <g id="social" transform="translate(696.000000, 8.000000)">
                                <g id="Stacked-Group">
                                    <path d="M102.998125,4.96085519 C101.891875,5.46073983 100.710625,5.80104591 99.46375,5.95485657 C100.733125,5.17234484 101.71,3.93609167 102.169375,2.46335461 C100.980625,3.18434207 99.6625,3.70922095 98.26,3.99184804 C97.13875,2.76520803 95.54125,2 93.7675,2 C90.37,2 87.61375,4.82242559 87.61375,8.30623702 C87.61375,8.8022764 87.67,9.28677997 87.773125,9.74821195 C82.658125,9.48288856 78.1225,6.97192955 75.086875,3.15742521 C74.554375,4.08605706 74.254375,5.17042221 74.254375,6.32977005 C74.254375,8.52157194 75.341875,10.4499731 76.991875,11.5824041 C75.983125,11.5497193 75.0325,11.2651696 74.20375,10.7941244 L74.20375,10.8710298 C74.20375,13.9280166 76.3225,16.4812736 79.140625,17.0619088 C78.623125,17.2041836 78.079375,17.281089 77.51875,17.281089 C77.125,17.281089 76.73875,17.2426363 76.361875,17.1695763 C77.145625,19.67669 79.418125,21.5012689 82.1125,21.55318 C80.005,23.2450973 77.35,24.2525571 74.468125,24.2525571 C73.97125,24.2525571 73.481875,24.2237176 73,24.1660386 C75.724375,25.9540875 78.95875,27 82.435,27 C93.75625,27 99.9475,17.3868338 99.9475,9.04645082 C99.9475,8.77151427 99.94,8.50042298 99.92875,8.22933169 C101.12875,7.3391525 102.175,6.22979312 103,4.96085519 L102.998125,4.96085519 Z" id="icon-twitter"></path>
                                </g>
                            </g>
                        </g>
                    </g>
                </g>
            </g>
        </g>
    </g>
</svg>