<svg xmlns="http://www.w3.org/2000/svg" width="20" height="20" viewBox="0 0 20 20">
  <path fill="#1E1E1E" d="M9.984,4.4408921e-16 C15.497,4.4408921e-16 19.967,4.47 19.967,9.984 C19.967,15.497 15.497,19.967 9.984,19.967 C4.47,19.967 0,15.497 0,9.984 C0,4.47 4.47,0 9.984,4.4408921e-16 Z M9.99996427,5.08110297 C11.6020284,5.08110297 11.7917772,5.08722395 12.4245194,5.1160902 C13.0095089,5.14278909 13.327178,5.2405104 13.538624,5.32267918 C13.7992301,5.41886476 14.0349667,5.57223391 14.2285028,5.77151125 C14.4277786,5.96504893 14.5811465,6.20078738 14.6773313,6.46139556 C14.7594994,6.6728194 14.8572438,6.99051486 14.8839187,7.57550894 C14.9127847,8.20820854 14.9189056,8.39795888 14.9189056,10.0000834 C14.9189056,11.6022078 14.9127847,11.7919105 14.8839187,12.4246578 C14.85722,13.0096519 14.7594756,13.3273235 14.6773313,13.5387712 C14.4754807,14.0620415 14.0618901,14.4756353 13.538624,14.6774875 C13.3272018,14.7596563 13.0095089,14.8574014 12.4245194,14.8840765 C11.791944,14.9129428 11.6021951,14.9190638 9.99996427,14.9190638 C8.39773343,14.9190638 8.20805605,14.9129428 7.5754091,14.8840765 C6.99041967,14.8573776 6.67275055,14.7596325 6.46130457,14.6774875 C6.20069809,14.5813027 5.96496137,14.4279334 5.77142574,14.2286555 C5.57215061,14.0351173 5.41878277,13.799379 5.32259723,13.5387712 C5.2404291,13.3273473 5.14268475,13.0096519 5.11600988,12.4246578 C5.08714386,11.791982 5.08102293,11.6022078 5.08102293,10.0000834 C5.08102293,8.39795888 5.08714386,8.20825618 5.11600988,7.57550894 C5.14270857,6.99051486 5.2404291,6.67284322 5.32259723,6.46139556 C5.41879278,6.20077439 5.57217742,5.96502715 5.77147337,5.77148743 C5.96501003,5.57221073 6.20074645,5.41884167 6.4613522,5.32265536 C6.67277437,5.24048658 6.99046731,5.14274146 7.57545674,5.11606638 C8.20815132,5.08720013 8.39790015,5.08107915 10.0000119,5.08107915 L9.99996427,5.08110297 Z M10.0000119,4 C8.37051077,4 8.16611458,4.00690694 7.52625113,4.03610663 C6.88760234,4.06525868 6.45146821,4.16667163 6.06982703,4.31500414 C5.66948007,4.46566193 5.30681431,4.70183546 5.00711925,5.0070558 C4.70183255,5.30673444 4.46559496,5.66940449 4.31488255,6.06977201 C4.16667031,6.45144004 4.06525816,6.88757763 4.03622543,7.52623149 C4.00690689,8.16610002 4,8.37049784 4,10.0000119 C4,11.629526 4.00690689,11.8339238 4.03622543,12.4737923 C4.06537725,13.1124462 4.16678939,13.5485838 4.31512072,13.930228 C4.46577801,14.3305778 4.70194957,14.6932463 5.00716689,14.9929442 C5.30686097,15.2981657 5.66952701,15.5343394 6.06987466,15.6849959 C6.45153966,15.8333284 6.88767379,15.9347413 7.52629876,15.9638934 C8.16625748,15.9930931 8.37058222,16 10.0000595,16 C11.6295369,16 11.8339569,15.9930931 12.4738203,15.9638934 C13.1124691,15.9347413 13.5486032,15.8333284 13.9302444,15.6849959 C14.7361766,15.3732896 15.3732946,14.7361666 15.6849984,13.930228 C15.8333297,13.54856 15.9347418,13.1124224 15.9638937,12.4737923 C15.9930931,11.8338285 16,11.6295022 16,10.0000119 C16,8.37052165 15.9930931,8.16610002 15.9638937,7.52623149 C15.9347418,6.88757763 15.8333297,6.45144004 15.6849984,6.06979583 C15.5343431,5.66944499 15.2981713,5.30677607 14.9929522,5.00707961 C14.693251,4.70179842 14.3305589,4.46557482 13.930173,4.31488505 C13.548508,4.16667163 13.1123738,4.06525868 12.4737251,4.03622571 C11.8338616,4.00690694 11.6294654,4 9.99996427,4 L10.0000119,4 Z M10,7 C8.34314575,7 7,8.34314575 7,10 C7,11.6568542 8.34314575,13 10,13 C11.6568542,13 13,11.6568542 13,10 C13,8.34314575 11.6568542,7 10,7 Z M10,11.9473505 C8.92451102,11.9473377 8.05266413,11.0754735 8.05267267,9.99998454 C8.05268121,8.92449556 8.92454194,8.05264521 10.0000309,8.05264948 C11.0755199,8.05265375 11.9473737,8.92451102 11.9473737,10 C11.9473609,11.0754957 11.0754957,11.9473505 10,11.9473505 Z M13.5,7 C13.7761424,7 14,6.77614237 14,6.5 C14,6.22385763 13.7761424,6 13.5,6 C13.2238576,6 13,6.22385763 13,6.5 C13,6.77614237 13.2238576,7 13.5,7 Z"/>
</svg>
