<svg xmlns="http://www.w3.org/2000/svg" width="20" height="20" viewBox="0 0 20 20">
  <path fill="#1E1E1E" d="M10,19.976 C4.49,19.976 0.024,15.51 0.024,10 C0.024,4.49 4.49,0.024 10,0.024 C15.51,0.024 19.976,4.49 19.976,10 C19.976,15.51 15.51,19.976 10,19.976 Z M10.7842038,12.2323567 L10.7842038,9.2277707 L12.9050955,9.2277707 L12.9050955,7.05630573 L10.7842038,7.05630573 L10.7842038,4.09363057 L8.96636943,4.09363057 C8.88203822,5.39834395 8.14980892,6.90484076 6.39923567,7.35936306 L6.39923567,9.2277707 L7.98993631,9.2277707 L7.98993631,12.6784713 C7.98993631,14.833121 9.29464968,15.733758 11.0452229,15.733758 L12.9894268,15.733758 L12.9894268,13.4444586 L11.9625478,13.4444586 C11.2387261,13.4444586 10.7842038,13.1328662 10.7842038,12.2323567 Z"/>
</svg>
