<svg xmlns="http://www.w3.org/2000/svg" viewBox="0 0 24 24">
  <path fill="#1E1E1E" d="M11.988 2.038c5.494 0 9.949 4.454 9.949 9.95 0 5.494-4.455 9.949-9.95 9.949-5.494 0-9.949-4.455-9.949-9.95 0-5.494 4.455-9.949 9.95-9.949zm5.823 7.68a3.529 3.529 0 00-3.528-3.529H9.717A3.529 3.529 0 006.19 9.717v4.566a3.529 3.529 0 003.528 3.528h4.566a3.529 3.529 0 003.528-3.528V9.717zm-.83 0v4.565a2.699 2.699 0 01-2.698 2.698H9.717a2.699 2.699 0 01-2.698-2.698V9.717A2.699 2.699 0 019.717 7.02h4.566a2.699 2.699 0 012.698 2.698zm-1.245-.831a.623.623 0 10-1.246 0 .623.623 0 001.246 0zM14.076 12a2.076 2.076 0 11-4.153-.001 2.076 2.076 0 014.152.001zm.83 0a2.906 2.906 0 10-5.813.001A2.906 2.906 0 0014.905 12z"/>
</svg>